<?xml version="1.0" encoding="UTF-8" standalone="no"?>
<svg
   xmlns:dc="http://purl.org/dc/elements/1.1/"
   xmlns:cc="http://creativecommons.org/ns#"
   xmlns:rdf="http://www.w3.org/1999/02/22-rdf-syntax-ns#"
   xmlns:svg="http://www.w3.org/2000/svg"
   xmlns="http://www.w3.org/2000/svg"
   viewBox="0 0 3232 3333.3333"
   height="3333.3333"
   width="3232"
   xml:space="preserve"
   id="svg2"
   version="1.1"><metadata
     id="metadata8"><rdf:RDF><cc:Work
         rdf:about=""><dc:format>image/svg+xml</dc:format><dc:type
           rdf:resource="http://purl.org/dc/dcmitype/StillImage" /></cc:Work></rdf:RDF></metadata><defs
     id="defs6"><clipPath
       id="clipPath18"
       clipPathUnits="userSpaceOnUse"><path
         id="path16"
         d="M 0,2500 H 2424 V 0 H 0 Z" /></clipPath></defs><g
     transform="matrix(1.3333333,0,0,-1.3333333,0,3333.3333)"
     id="g10"><g
       id="g12"><g
         clip-path="url(#clipPath18)"
         id="g14"><g
           transform="translate(2288.1777,1029.0746)"
           id="g20"><path
             id="path22"
             style="fill:#000000;fill-opacity:1;fill-rule:nonzero;stroke:none"
             d="m 0,0 c -13.007,39.393 -47.078,66.83 -91.14,73.413 -20.777,3.102 -44.57,1.78 -72.727,-4.024 -49.077,-10.126 -85.487,-13.982 -112.061,-14.727 100.3,169.34 181.857,362.448 228.807,544.228 75.922,293.933 35.351,427.838 -12.058,488.406 -125.465,160.316 -308.515,246.439 -529.348,249.075 -117.806,1.44 -221.223,-21.819 -275.173,-38.546 -50.231,8.864 -104.239,13.812 -160.909,14.727 -106.231,1.695 -200.091,-21.463 -280.291,-69.058 -44.401,15.015 -115.662,36.181 -197.955,49.688 -193.55,31.775 -349.544,7.016 -463.647,-73.592 -138.167,-97.596 -202.217,-267.165 -190.372,-503.996 3.763,-75.193 45.825,-303.974 112.053,-520.944 38.062,-124.711 78.65,-228.272 120.635,-307.837 59.542,-112.824 123.254,-179.263 194.778,-203.124 40.087,-13.354 112.925,-22.708 189.532,41.096 9.71,-11.762 22.667,-23.446 39.859,-34.301 21.836,-13.768 48.536,-25.021 75.201,-31.69 96.097,-24.021 186.109,-18.015 262.904,15.659 0.474,-13.659 0.839,-26.708 1.143,-37.977 0.509,-18.278 1.018,-36.199 1.687,-52.959 4.55,-113.324 12.261,-201.438 35.105,-263.09 1.254,-3.39 2.94,-8.558 4.72,-14.04 11.396,-34.894 30.453,-93.309 78.938,-139.057 50.205,-47.391 110.933,-61.924 166.552,-61.924 27.895,0 54.51,3.66 77.854,8.66 83.209,17.836 177.712,45.002 246.075,142.344 64.635,92.022 96.055,230.62 101.74,449.005 0.738,6.177 1.415,12.074 2.068,17.692 l 1.355,11.541 15.227,-1.339 3.924,-0.263 c 84.75,-3.863 188.379,14.108 252.023,43.672 C -123.212,-199.946 37.943,-114.865 0,0" /></g><g
           transform="translate(2143.2656,1006.7387)"
           id="g24"><path
             id="path26"
             style="fill:#336791;fill-opacity:1;fill-rule:nonzero;stroke:none"
             d="m 0,0 c -251.998,-51.983 -269.326,33.335 -269.326,33.335 266.064,394.8 377.294,895.941 281.316,1018.593 -261.861,334.571 -715.144,176.34 -722.712,172.238 l -2.431,-0.44 c -49.79,10.337 -105.502,16.489 -168.129,17.514 -114.018,1.864 -200.514,-29.894 -266.149,-79.667 0,0 -808.614,333.123 -771.001,-418.957 7.999,-159.995 229.324,-1210.617 493.303,-893.281 96.486,116.043 189.719,214.156 189.719,214.156 46.299,-30.758 101.731,-46.451 159.842,-40.816 l 4.516,3.83 c -1.406,-14.404 -0.762,-28.496 1.805,-45.18 -68.007,-75.981 -48.019,-89.318 -183.966,-117.305 -137.565,-28.352 -56.754,-78.82 -3.991,-92.021 63.966,-15.989 211.945,-38.647 311.931,101.324 l -3.982,-15.972 c 26.64,-21.344 45.349,-138.82 42.214,-245.322 -3.136,-106.493 -5.229,-179.609 15.76,-236.72 21.006,-57.111 41.927,-185.61 220.647,-147.318 149.326,32.004 226.714,114.933 237.484,253.269 7.634,98.343 24.928,83.802 26.012,171.73 l 13.871,41.621 c 15.99,133.312 2.542,176.323 94.538,156.317 l 22.37,-1.965 c 67.702,-3.076 156.334,10.896 208.352,35.07 C 43.994,-63.99 110.425,22.802 -0.017,0 H 0" /></g><g
           transform="translate(1795.4678,1677.1781)"
           id="g28"><path
             id="path30"
             style="fill:#ffffff;fill-opacity:1;fill-rule:nonzero;stroke:none"
             d="m 0,0 c -2.17,15.515 -29.775,19.938 -55.976,16.294 -26.166,-3.643 -51.535,-15.455 -49.417,-31.004 1.696,-12.091 23.532,-32.732 49.375,-32.732 2.186,0 4.389,0.144 6.61,0.457 17.251,2.389 29.91,13.346 35.927,19.658 C -4.33,-17.701 0.974,-6.974 0,0 m -752.301,0.627 c -22.708,3.161 -43.273,0.237 -53.678,-7.643 -5.847,-4.432 -7.661,-9.567 -8.152,-13.1 -1.305,-9.363 5.254,-19.717 9.287,-25.056 11.405,-15.116 28.064,-25.505 44.553,-27.792 2.389,-0.339 4.77,-0.492 7.134,-0.492 27.497,0 52.502,21.413 54.705,37.215 2.753,19.794 -25.98,32.987 -53.849,36.86" /></g><g
           transform="translate(2060.3535,922.183)"
           id="g32"><path
             id="path34"
             style="fill:#ffffff;fill-opacity:1;fill-rule:nonzero;stroke:none"
             d="m 0,0 c -36.097,-16.752 -96.503,-29.317 -153.885,-32.021 -63.381,-2.965 -95.647,7.101 -103.239,13.295 -3.56,73.244 23.699,80.895 52.552,88.996 4.533,1.271 8.956,2.516 13.226,4.008 2.653,-2.161 5.559,-4.304 8.744,-6.406 C -131.659,34.25 -40.799,30.623 87.479,57.103 l 1.407,0.279 C 71.583,41.206 41.978,19.498 0,0 m -577.07,-660.381 c -138.252,-29.623 -187.203,40.918 -219.461,121.559 -20.82,52.06 -31.055,286.824 -23.793,546.084 0.093,3.448 -0.399,6.779 -1.348,9.914 -0.849,6.19 -2.14,12.312 -3.863,18.319 -10.796,37.724 -37.106,69.278 -68.669,82.361 -12.541,5.195 -35.554,14.727 -63.211,7.652 5.897,24.302 16.124,51.747 27.216,81.463 l 4.652,12.498 c 5.237,14.091 11.812,28.691 18.76,44.146 37.563,83.446 89.005,197.744 33.174,455.953 -20.913,96.715 -90.75,143.946 -196.617,132.972 -63.465,-6.566 -121.534,-32.173 -150.496,-46.857 -6.228,-3.152 -11.921,-6.203 -17.243,-9.168 8.084,97.443 38.622,279.553 152.86,394.775 71.93,72.532 167.722,108.357 284.434,106.425 229.968,-3.762 377.439,-121.779 460.664,-220.13 71.719,-84.742 110.552,-170.111 126.05,-216.156 -116.552,11.855 -195.819,-11.151 -236.001,-68.6 -87.42,-124.966 47.824,-367.508 112.823,-484.076 11.922,-21.361 22.209,-39.824 25.446,-47.671 21.167,-51.298 48.57,-85.547 68.575,-110.544 6.135,-7.66 12.083,-15.091 16.608,-21.582 -35.3,-10.176 -98.707,-33.689 -92.927,-151.224 -4.661,-58.975 -37.8,-335.088 -54.637,-432.642 -22.226,-128.88 -69.651,-176.882 -202.996,-205.48 z m -591.434,550.362 c -17.167,4.289 -32.606,11.737 -41.663,17.914 7.566,3.558 21.03,8.405 44.383,13.218 113.009,23.259 130.465,39.681 168.578,88.073 8.736,11.099 18.641,23.673 32.36,38.994 l 0.016,0.016 c 20.43,22.879 29.776,18.998 46.723,11.965 13.735,-5.677 27.114,-22.895 32.538,-41.842 2.567,-8.947 5.448,-25.928 -3.983,-39.146 -79.616,-111.477 -195.634,-110.044 -278.952,-89.192 m -9.024,321.142 c -55.298,57.703 -80.412,137.963 -68.914,220.223 16.099,115.17 10.159,215.478 6.965,269.368 -0.449,7.542 -0.848,14.151 -1.076,19.362 26.038,23.09 146.708,87.742 232.763,68.025 39.266,-8.991 63.195,-35.733 73.143,-81.727 51.484,-238.127 6.813,-337.376 -29.081,-417.136 -7.397,-16.429 -14.388,-31.961 -20.353,-48.026 l -4.627,-12.422 c -11.709,-31.402 -22.606,-60.602 -29.36,-88.327 -58.788,0.17 -115.975,25.285 -159.46,70.668 z M -1368.001,-43.02 c -49.993,-60.109 -84.514,-48.585 -95.868,-44.806 -73.973,24.674 -159.808,181.025 -235.484,428.956 -65.482,214.529 -103.748,430.253 -106.781,490.744 -9.558,191.312 36.817,324.641 137.844,396.292 164.418,116.593 434.736,46.807 543.356,11.413 -1.559,-1.542 -3.186,-2.982 -4.728,-4.55 -178.246,-180.008 -174.018,-487.558 -173.577,-506.361 -0.017,-7.253 0.593,-17.523 1.423,-31.648 3.067,-51.73 8.779,-148.004 -6.474,-257.031 -14.167,-101.316 17.066,-200.48 85.675,-272.072 7.041,-7.333 14.442,-14.313 22.175,-20.912 -30.539,-32.707 -96.911,-105.036 -167.561,-190.025 m 1011.534,1364.384 c 180.772,-3.991 323.769,-71.617 425.008,-200.989 77.65,-99.231 -7.854,-550.752 -255.387,-940.281 -2.49,3.165 -4.992,6.32 -7.508,9.465 l -3.134,3.914 c 63.965,105.637 51.458,210.156 40.324,302.821 -4.575,38.029 -8.897,73.948 -7.795,107.688 1.135,35.758 5.863,66.432 10.438,96.089 5.619,36.546 11.338,74.362 9.762,118.941 1.178,4.677 1.653,10.201 1.033,16.76 -4.024,42.748 -52.831,170.687 -152.308,286.485 -54.416,63.338 -133.77,134.218 -242.118,182.025 46.603,9.659 110.331,18.667 181.685,17.082 m 149.505,-523.545 c -0.517,-30.902 -4.77,-58.957 -9.278,-88.241 -4.856,-31.496 -9.872,-64.059 -11.134,-103.587 -1.246,-38.47 3.559,-78.464 8.202,-117.145 9.389,-78.124 19.023,-158.554 -18.268,-237.915 -6.196,10.976 -11.713,22.32 -16.524,33.969 -4.635,11.237 -14.701,29.285 -28.64,54.264 -54.221,97.241 -181.195,324.954 -116.196,417.873 19.363,27.657 68.499,56.094 191.838,40.783 z M 166.765,90.462 c -9.609,29.056 -40.536,38.401 -91.919,27.793 -152.564,-31.487 -207.2,-9.677 -225.138,3.533 118.585,180.652 216.139,399.028 268.767,602.771 24.928,96.511 38.698,186.143 39.825,259.2 1.246,80.184 -12.413,139.108 -40.579,175.103 -113.56,145.106 -280.232,222.943 -481.983,225.078 -138.701,1.559 -255.887,-33.936 -278.604,-43.918 -47.841,11.897 -99.995,19.201 -156.775,20.133 -104.121,1.687 -194.125,-23.242 -268.64,-74.057 -32.368,12.049 -116.018,40.765 -218.317,57.246 -176.856,28.471 -317.396,6.898 -417.687,-64.152 -119.669,-84.784 -174.915,-236.339 -164.214,-450.445 3.602,-72.032 44.647,-293.627 109.417,-505.844 85.259,-279.316 177.941,-437.437 275.453,-469.966 11.414,-3.805 24.573,-6.466 39.087,-6.466 35.572,0 79.184,16.032 124.559,70.584 55.344,66.392 112.595,131.173 171.679,194.259 38.334,-20.573 80.447,-32.062 123.517,-33.214 0.084,-1.127 0.195,-2.254 0.296,-3.373 -7.414,-8.841 -14.674,-17.81 -21.776,-26.903 -29.843,-37.885 -36.054,-45.773 -132.117,-65.551 -27.327,-5.642 -99.901,-20.598 -100.969,-71.472 -1.152,-55.585 85.793,-78.93 95.698,-81.404 34.521,-8.643 67.779,-12.905 99.495,-12.905 77.133,0 145.013,25.353 199.26,74.405 -1.669,-198.159 6.592,-393.419 30.385,-452.911 19.489,-48.705 67.092,-167.73 217.461,-167.721 22.065,0 46.349,2.567 73.066,8.295 156.935,33.639 225.087,103.003 251.447,255.921 14.108,81.726 38.317,276.876 49.705,381.556 24.03,-7.498 54.967,-10.931 88.411,-10.922 69.753,0 150.242,14.821 200.718,38.249 56.704,26.335 159.028,90.953 140.472,147.098" /></g></g></g></g></svg>