<svg version="1.2" xmlns="http://www.w3.org/2000/svg" viewBox="0 0 2276 2276" width="2276" height="2276">
	<title>Typescript</title>
	<style>
		.s0 { fill: #007acc } 
		.s1 { fill: #ffffff } 
	</style>
	<g id="Layer 1">
		<path id="&lt;Path&gt;" class="s0" d="m0.4 1138v-1137.6h2275.2v2275.2h-2275.2"/>
		<path id="&lt;Compound Path&gt;" fill-rule="evenodd" class="s1" d="m611.2 1254v92.7h295.8v841.8h209.9v-841.8h295.8v-91c0-51.2 0-92.7-2.3-93.9 0-1.7-180.3-2.2-399.3-2.2l-398.2 1.7v93.3l-1.7-0.6zm1329.3-95l1.2-1.1c-39.3-10.3-133.1-13.7-173-5.7-122.8 22.7-208.7 102.4-233.2 216.1-7.9 32.4-5.1 113.2 3.4 146.2 11.4 38.1 35.9 84.2 62.6 113.8 46.7 48.9 96.7 80.7 214.5 130.8 102.3 45.5 138.7 66 156.9 91 13.1 19.9 17.1 31.8 17.1 58 0 28.4-9.1 48.9-30.1 68.3-49 44.3-147.9 49.4-221.9 11.3-24.4-13.6-66.5-53.4-85.3-83l-14.8-19.9-64.3 37.5-85.3 49.5-21.6 13.7c-2.3 3.9 38.1 64.8 59.2 87.6 53.4 58.5 140.5 104 231.5 121.1 42.6 7.4 133.6 8.5 173.5 1.7 126.8-21 215.5-85.3 251.9-180.3 32.5-87 21.6-203.1-26.7-277-42.7-66-113.2-112.1-275.9-182-88.1-38.7-116.6-57.5-131.9-88.8-6.9-14.7-10.3-25-10.3-43.2 0-59.7 45.5-95.5 113.8-91 47.2 3.4 77.3 21.6 106.9 63.7 9.1 14.8 18.2 24.5 20.5 22.8 59.7-37 158.1-103.6 158.1-107-2.3-10.2-33.5-50-54.6-72.8-39.8-41.5-84.2-67.7-142.2-81.3z"/>
	</g>
</svg>